<svg id="logo" version="1.1" xmlns="http://www.w3.org/2000/svg" xml:space="preserve" x="0" y="0" viewBox="0 0 1024 384" stroke="currentColor" fill="currentColor" stroke-width="0" width="50" height="50" data-testid="SvgBbc"><g><path d="M64,64v256h256V64H64z M242.5,244.7c-4.4,6.2-10.6,10.9-18.7,14.3c-8.1,3.4-17.8,5-29.2,5h-57.4V120h54 c15.9,0,28.3,3.2,37,9.6c8.7,6.4,13.1,15.5,13.1,27.5c0,6.8-1.6,12.8-4.7,17.8c-3.1,5-7.8,9-13.9,12c8.5,2.8,15,7.3,19.5,13.4 c4.5,6.1,6.8,13.5,6.8,22.3C249.1,231.1,246.9,238.5,242.5,244.7z M205.9,174.3c4-3.3,6-7.9,6-13.8c0-11.4-7.8-17.1-23.3-17.1 h-22.1v35.8h22.1C196.2,179.2,201.9,177.6,205.9,174.3z M192.3,201.8h-25.8v38.9h25.5c8.7,0,15.5-1.6,20.2-4.9c4.7-3.3,7-8,7-14.2 C219.1,208.3,210.2,201.8,192.3,201.8z"/><path d="M384,64v256h256V64H384z M562.5,244.7c-4.4,6.2-10.6,10.9-18.7,14.3c-8.1,3.4-17.8,5-29.2,5h-57.4V120h54 c15.9,0,28.3,3.2,37,9.6c8.7,6.4,13.1,15.5,13.1,27.5c0,6.8-1.6,12.8-4.7,17.8c-3.1,5-7.8,9-13.9,12c8.5,2.8,15,7.3,19.5,13.4 c4.5,6.1,6.8,13.5,6.8,22.3C569.1,231.1,566.9,238.5,562.5,244.7z M525.9,174.3c4-3.3,6-7.9,6-13.8c0-11.4-7.8-17.1-23.3-17.1 h-22.1v35.8h22.1C516.2,179.2,521.9,177.6,525.9,174.3z M512.3,201.8h-25.8v38.9h25.5c8.7,0,15.5-1.6,20.2-4.9c4.7-3.3,7-8,7-14.2 C539.1,208.3,530.2,201.8,512.3,201.8z"/><path d="M704,320h256V64H704V320z M887.9,254.9c-6,3.3-12.9,5.9-20.7,7.8c-7.9,1.9-16.1,2.9-24.8,2.9c-11.5,0-21.9-1.7-31.1-5 c-9.2-3.4-17-8.2-23.4-14.5c-6.4-6.3-11.2-14-14.6-23.2c-3.4-9.1-5.1-19.4-5.1-30.9c0-11.2,1.8-21.3,5.3-30.3 c3.5-9,8.6-16.7,15.2-23.2c6.6-6.4,14.6-11.4,23.9-14.8c9.3-3.4,19.7-5.1,31.2-5.1c8,0,15.5,0.8,22.7,2.5c7.1,1.6,13.7,4,19.8,7.2 v28c-5.6-3.7-11.6-6.5-18.1-8.4c-6.5-1.9-13.3-2.9-20.5-2.9c-9.9,0-18.3,1.8-25.3,5.5c-7,3.7-12.3,9-16.1,16 c-3.7,7-5.6,15.5-5.6,25.5c0,10,1.8,18.5,5.4,25.6c3.6,7,8.8,12.4,15.6,16.1c6.8,3.7,15.1,5.5,24.9,5.5c14.9,0,28.7-3.9,41.3-11.6 V254.9z"/></g></svg>