<svg xmlns="http://www.w3.org/2000/svg" viewBox="0 0 112 112" stroke="currentColor" fill="currentColor" stroke-width="0" data-testid="Rating" class="sc-beqWaB ikqsiK"><circle cx="55" cy="55" r="50" fill="#091F29" fill-opacity="1"/><line y1="79" x2="73" y2="39" x1="53" stroke="#79D6F2" stroke-width="2" stroke-dasharray="0"/><text x="44" y="61" font-size="42" fill="#79D6F2" font-family="Industry TG, Helvetica, Arial, sans-serif" font-weight="bold" text-anchor="middle">8</text><text x="75" y="75" font-size="15" fill="#79D6F2" font-family="Industry TG, Helvetica, Arial, sans-serif" font-weight="bold" text-anchor="middle">10</text><path fill-rule="evenodd" clip-rule="evenodd" d="m112 57-2.6 0.99-0.88 7.9 2.3 1.5-1.9 6.8-2.7 0.14-3.3 7.3 1.6 2.1-3.9 5.9-2.5-0.67-5.4 6 0.87 2.5-5.5 4.4-2.2-1.4-7 4 0.07 2.6-6.6 2.5-1.6-2-8 1.6-0.77 2.5-7 0.25-0.92-2.4-8.1-0.94-1.4 2.1-6.8-1.9-0.14-2.5-7.4-3.4-2 1.6-5.9-3.9 0.63-2.5-5.9-5.4-2.5 0.87-4.4-5.5 1.4-2.2-3.9-7h-2.7l-2.5-6.6 1.9-1.7-1.5-7.8-2.6-0.78v-7l2.6-1 0.94-7.8-2.3-1.7 2-6.8 2.8-0.15h3e-5l0.77-1.9 2.5-5.2-1.7-2.3 3.9-5.9 2.8 0.76 5.3-5.7-0.98-2.8 5.5-4.4 2.5 1.6 6.7-3.8-0.084-3 6.6-2.5 1.9 2.3 7.6-1.5 0.85-2.9 7-0.25 1.1 2.8 7.7 0.88 1.8-2.5 6.8 1.9 0.17 3 7 3.2 2.4-1.8 5.8 3.9-0.77 2.9 5.7 5.3 2.8-0.99 4.4 5.5-1.6 2.5 3.8 6.8 3.2-0.028 2.4 6.6-2.2 1.8 1.6 7.7 2.7 0.8zm-19 21 3e-4 -4e-4 -0.82-1.3 0.62-1.1 1.4-0.14 0.58-1.2-0.78-1.2 0.51-1.2 1.4-0.27 0.45-1.2-0.89-1.2 0.38-1.2 1.4-0.42 0.34-1.3-1-1 0.27-1.2 1.4-0.55 0.21-1.3-1.1-0.94 0.14-1.3 1.3-0.66 0.085-1.3-1.2-0.83v-1.3l1.2-0.79v-1.4l-1.3-0.7-0.099-1.3 1.1-0.92-0.17-1.3-1.3-0.58-0.23-1.3 1-1-0.31-1.3-1.4-0.45-0.34-1.2 0.92-1.1-0.42-1.2-1.4-0.31-0.48-1.2 0.82-1.2-0.55-1.2-1.4-0.17-0.58-1.1 0.69-1.3-0.66-1.1h-1.4l-0.69-1.1 0.56-1.3-0.78-1.1-1.4 0.099-0.79-0.99 0.42-1.4-0.87-1-1.4 0.24-0.78-0.8 0.3-1.4-1.1-1-1.4 0.39-0.97-0.82 0.16-1.4-1.1-0.8-1.3 0.52-1.1-0.72v-1.4l-1.1-0.69-1.3 0.66-1.1-0.62-0.14-1.4-1.2-0.58-1.2 0.78-1.2-0.51-0.27-1.4-1.2-0.46-1.2 0.9-1.2-0.39-0.42-1.4-1.3-0.34-1 1-1.2-0.27-0.55-1.4-1.3-0.21-0.94 1.1-1.3-0.14-0.66-1.3-1.3-0.085-0.83 1.2h-1.3l-0.79-1.2h-1.5l-0.71 1.3-1.3 0.11-0.9-1.1-1.3 0.17-0.58 1.3-1.3 0.23-1-1-1.3 0.3-0.45 1.4-1.2 0.35-1.1-0.93-1.2 0.44-0.31 1.4-1.2 0.46-1.2-0.8-1.2 0.55-0.17 1.4-1.1 0.59-1.3-0.69-1.1 0.66v1.4l-1.1 0.69-1.3-0.55-1.1 0.76 0.099 1.4-0.99 0.79-1.4-0.42-1 0.87 0.24 1.4-0.92 0.87-1.4-0.28-1 1.1 0.39 1.4-0.83 0.97-1.4-0.14-0.8 1.1 0.52 1.3-0.72 1h-1.4l-0.69 1.1 0.66 1.3-0.62 1.1-1.4 0.13-1e-4 3e-4 -0.58 1.2 0.78 1.2-0.51 1.2-1.4 0.28-0.47 1.2 0.9 1.1-0.39 1.2-1.4 0.41-0.34 1.3 1 1.1-0.27 1.2-1.3 0.55-0.21 1.3 1.1 0.94-0.14 1.3-1.3 0.68-0.085 1.3 1.2 0.82v1.3l-1.2 0.79v1.4l1.3 0.7 0.11 1.3-1.1 0.92 0.085 1.3 1.3 0.59 0.24 1.2-1 1 0.3 1.3 1.4 0.47 0.35 1.2-0.92 1.1 0.44 1.2 1.4 0.32 0.47 1.2-0.8 1.2 0.54 1.2 1.4 0.17 0.59 1.1-0.69 1.3 0.66 1.1h1.4l0.69 1.1-0.56 1.4 0.78 1.1 1.4-0.11 0.79 1-0.42 1.4 0.87 1 1.4-0.25 0.87 0.92-0.28 1.4 1.1 1 1.4-0.38 0.97 0.82-0.14 1.4 1 0.8 1.4-0.52 1 0.72v1.4l1.1 0.69 1.3-0.65 1.1 0.62 0.13 1.4 1.2 0.58 1.3-0.73 1.2 0.51 0.28 1.4 1.2 0.45 1.1-0.89 1.2 0.38 0.41 1.4 1.3 0.34 1.1-1 1.2 0.27 0.55 1.3 1.3 0.21 0.94-1.1 1.3 0.14 0.68 1.3 1.3 0.085 0.82-1.2h1.3l0.78 1.2h1.4l0.71-1.2 1.3-0.11 0.92 1.1 1.3-0.17 0.59-1.3 1.2-0.23 1 1 1.3-0.31 0.47-1.4 1.2-0.35 1.1 0.8 1.2-0.42 0.32-1.4 1.2-0.48 1.2 0.82 1.2-0.55 0.17-1.4 1.1-0.58 1.3 0.69 1.1-0.66v-1.4l1.1-0.69 1.4 0.56 1.1-0.76-0.11-1.4 1-0.79 1.4 0.44 1-0.89-0.25-1.4 0.92-0.89 1.4 0.3 1-1.1-0.38-1.4 0.82-0.97 1.4 0.16 0.8-1.1-0.52-1.3 0.72-1h1.4z" fill="#79D6F2" stroke="none"/></svg>