<svg xmlns="http://www.w3.org/2000/svg" viewBox="0 0 32 32" stroke="currentColor" fill="currentColor" stroke-width="0" width="1em" height="1em" data-testid="SvgGelIconLink"><path d="M20.7 9.5l-11 11.1 1.8 1.8 11.1-11.1-1.9-1.8zm.6 6.3l-2 2c2.1 1.4 5.9.8 8.7-2l.6-.6c3-3 3.9-7.6-.1-11.7-4-4-8.6-3-11.6 0l-.6.5c-3 3-3.5 6.7-2 8.7l2-2c-.3-1.1-.2-2.7 2-4.9l.6-.6c2.4-2.4 5.4-2.5 7.9 0 2.5 2.6 2.4 5.5 0 7.9l-.6.6c-2.2 2.3-3.9 2.4-4.9 2.1zm-5.5 5.5c.3 1 .2 2.7-2 4.8l-.6.6c-2.4 2.4-5.4 2.5-7.9 0s-2.4-5.5 0-7.9l.6-.6c2.1-2.1 3.8-2.3 4.9-2l2-2c-2-1.4-5.7-.9-8.7 2l-.6.6c-3 3-4 7.6 0 11.6s8.6 3.1 11.7.1l.6-.6c2.9-2.9 3.5-6.7 2-8.7l-2 2.1z" stroke="none"/></svg>