<svg xmlns="http://www.w3.org/2000/svg" viewBox="0 0 26 21" stroke="currentColor" fill="currentColor" stroke-width="0" width="100%" height="100%" data-testid="SvgTwitter"><path d="M23.355 5.97c0-.23 0-.461-.014-.69A10.858 10.858 0 0026 2.52a10.617 10.617 0 01-3.063.84A5.355 5.355 0 0025.282.408a10.699 10.699 0 01-3.386 1.296 5.34 5.34 0 00-9.093 4.863A15.14 15.14 0 011.81.995a5.338 5.338 0 001.652 7.12 5.28 5.28 0 01-2.423-.667v.068a5.338 5.338 0 004.282 5.23 5.314 5.314 0 01-2.408.09 5.342 5.342 0 004.983 3.705A10.718 10.718 0 010 18.754a15.089 15.089 0 008.177 2.391c9.812.005 15.178-8.124 15.178-15.173z" stroke="none"/></svg>