<svg xmlns="http://www.w3.org/2000/svg" viewBox="0 0 16 16" stroke="currentColor" fill="currentColor" stroke-width="0" width="1em" height="1em" data-testid="SvgWhatsapp"><path d="M8.03355 0C3.64232 0 0.0686452 3.44206 0.0670968 7.67226C0.0660645 9.02503 0.433548 10.3453 1.13032 11.5081L0 15.4839L4.22348 14.417C5.39831 15.0316 6.70461 15.3521 8.03045 15.3512H8.03355C12.4248 15.3512 15.9985 11.9086 16 7.67845C16.001 5.62942 15.1732 3.70064 13.6686 2.25084C12.1646 0.800516 10.1646 0.000516129 8.03355 0ZM8.03355 14.0552H8.03097C6.84284 14.0552 5.67742 13.7476 4.66064 13.1664L4.41806 13.0281L1.91277 13.6609L2.58168 11.3074L2.42426 11.0663C1.76305 10.0579 1.41106 8.87814 1.41161 7.67226C1.41316 4.15587 4.384 1.296 8.03613 1.296C9.80439 1.29652 11.4668 1.96077 12.7174 3.16593C13.968 4.3711 14.656 5.97368 14.655 7.67793C14.6534 11.1943 11.6831 14.0552 8.03303 14.0552H8.03355ZM11.6655 9.27845C11.4663 9.18297 10.4877 8.71897 10.305 8.65445C10.1228 8.59097 9.99019 8.55793 9.85755 8.74993C9.72542 8.94193 9.34348 9.37393 9.22787 9.50142C9.11123 9.62942 8.9951 9.6449 8.79587 9.54942C8.59664 9.45342 7.9551 9.2511 7.19535 8.59768C6.60335 8.08981 6.20387 7.46219 6.08774 7.26968C5.97161 7.07819 6.07535 6.97445 6.17497 6.87897C6.26426 6.79381 6.37419 6.65548 6.47329 6.54348C6.57239 6.43148 6.60542 6.35148 6.67252 6.22348C6.73858 6.096 6.70555 5.98348 6.65548 5.888C6.60542 5.79148 6.208 4.848 6.04129 4.46452C5.88026 4.09084 5.71613 4.1409 5.59381 4.13471C5.47768 4.12955 5.34555 4.128 5.21187 4.128C5.08026 4.128 4.864 4.176 4.68129 4.368C4.4991 4.56 3.98452 5.02348 3.98452 5.96697C3.98452 6.91097 4.69781 7.82245 4.79742 7.95045C4.89703 8.07793 6.20129 10.015 8.19819 10.8459C8.67303 11.0426 9.04361 11.1608 9.33316 11.2495C9.81006 11.3956 10.2441 11.3745 10.5868 11.3254C10.9688 11.2702 11.7646 10.8619 11.9298 10.4144C12.096 9.96697 12.096 9.58297 12.0465 9.50297C11.9979 9.42297 11.8648 9.37497 11.6655 9.27845V9.27845Z"/></svg>