<svg xmlns="http://www.w3.org/2000/svg" viewBox="0 0 26 26" stroke="currentColor" fill="currentColor" stroke-width="0" width="100%" height="100%" data-testid="SvgLinkedin"><path d="M25.961 1.373C25.85.9 25.445.404 24.968.15L24.676 0H1.314l-.306.165c-.385.21-.745.6-.896.969L0 1.411v23.12l.112.277c.15.37.511.759.896.968l.306.166h23.362l.302-.166c.375-.2.71-.55.88-.92l.132-.277.01-11.51c0-6.61-.015-11.59-.039-11.696zm-5.738 20.772H18.3l-.029-3.796c-.024-3.456-.034-3.82-.112-4.088-.136-.453-.321-.789-.55-1.003-.316-.292-.589-.394-1.144-.423-1.085-.054-1.752.282-2.131 1.085-.312.667-.312.657-.341 4.624l-.024 3.601H10.124l-.015-6.215-.01-6.22h3.748v1.728l.131-.195a4.13 4.13 0 012.979-1.825c.55-.068 1.553 0 2.112.146 1.855.472 2.79 1.767 3.047 4.215.024.214.04 2.18.034 4.375l-.005 3.991zM7.865 6.556c-.467 1.212-1.883 1.791-3.037 1.241-.852-.404-1.348-1.236-1.29-2.166a2.215 2.215 0 01.891-1.65 2.25 2.25 0 012.38-.2c.258.132.74.595.89.857.327.555.395 1.33.166 1.918zm-2.097 15.59H3.845L3.83 15.93l-.01-6.22h3.894l-.01 6.22-.014 6.215z" stroke="none"/></svg>