<svg width="177" height="68" viewBox="0 0 177 68" fill="none" xmlns="http://www.w3.org/2000/svg">
<path d="M48.4486 54.8394L48.0659 55.1028L48.1146 55.7708L47.9004 55.9078L47.6842 56.0428L47.4674 56.1757L47.2488 56.3063L46.6724 55.9645L45.9277 56.3756L45.911 57.0451L45.6841 57.1604L45.4563 57.2737L45.2268 57.3846L44.9964 57.4932L44.4566 57.0967L43.6756 57.4331L43.5931 58.0976L43.3557 58.1904L43.118 58.2804L42.8786 58.3684L42.6389 58.454L42.1404 58.0065L41.3301 58.2648L41.1831 58.918L40.9379 58.9869L40.6919 59.0533L40.4452 59.1176L40.1984 59.1793L39.7458 58.6852L38.9144 58.8628L38.7039 59.4982L38.4532 59.5429L38.202 59.585L37.9503 59.6247L37.6983 59.6619L37.2966 59.1259L36.4518 59.2212L36.1798 59.8333L35.926 59.853L35.6719 59.8705L35.4176 59.8854L35.1631 59.8976L34.816 59.3248L33.9658 59.3368L33.6351 59.9194L33.3805 59.9142L33.126 59.9064L32.8714 59.8962L32.6168 59.8837L32.3279 59.2798L31.4805 59.2085L31.0944 59.7557L30.8414 59.7257L30.5886 59.6932L30.3364 59.6581L30.0844 59.6209L29.8559 58.9911L29.0198 58.8372L28.5818 59.3441L28.3329 59.2894L28.0846 59.2324L27.8371 59.1728L27.5898 59.1109L27.4243 58.4621L26.6072 58.2271L26.1215 58.6885L25.8792 58.6097L25.6379 58.5285L25.3972 58.4452L25.1574 58.359L25.0561 57.6973L24.2661 57.3833L23.7374 57.7949L23.5042 57.6928L23.272 57.5887L23.0406 57.482L22.8103 57.3729L22.7746 56.7043L22.0192 56.3144L21.4528 56.6723L21.2305 56.548L21.0095 56.4213L20.7899 56.2925L20.5713 56.1616L20.6012 55.4925L19.8878 55.0307L19.289 55.3316L19.0801 55.1859L18.8724 55.0382L18.6666 54.8886L18.462 54.7368L18.5574 54.074L17.8927 53.5445L17.2671 53.785L17.0737 53.6197L16.8817 53.4526L16.6912 53.2834L16.5026 53.1123L16.6626 52.462L16.0528 51.8701L15.4069 52.0481L15.2305 51.8646L15.0557 51.6795L14.8829 51.4926L14.712 51.3038L14.935 50.6723L14.3863 50.0233L13.726 50.1376L13.5684 49.9376L13.4128 49.7361L13.2591 49.5331L13.1074 49.3287L13.3912 48.7219L12.9089 48.0224L12.2405 48.0713L12.1032 47.8568L11.9683 47.6413L11.8354 47.4242L11.7043 47.2057L12.0464 46.6299L11.635 45.8864L10.9648 45.8697L10.8494 45.643L10.7361 45.4149L10.6253 45.1858L10.5164 44.9557L10.9132 44.4161L10.5769 43.6361L9.91164 43.5536L9.81888 43.3167L9.72846 43.0787L9.64039 42.84L9.55467 42.6003L10.0026 42.1022L9.74435 41.2929L9.09034 41.1458L9.02129 40.9008L8.95485 40.6551L8.89049 40.4088L8.82899 40.162L9.32329 39.7101L9.23469 39.2949L9.14558 38.8794L8.50955 38.669L8.46499 38.4183L8.42252 38.1674L8.38291 37.9162L8.34565 37.6644C8.34565 37.6644 8.36415 37.6504 8.39438 37.628L8.88241 37.263L8.78678 36.419L8.1742 36.1472L8.1544 35.8934L8.1372 35.6396L8.12235 35.3855L8.10984 35.1314L8.68308 34.7847L8.6711 33.9352L8.08822 33.6048L8.09316 33.3502L8.10098 33.0959L8.11115 32.8416L8.12365 32.5875L8.72816 32.2985L8.76411 31.8752L8.79955 31.4522L8.25185 31.0661L8.28181 30.8133L8.31438 30.5611L8.34956 30.3088L8.38708 30.0573L9.01712 29.8288L9.17111 28.9934L8.6638 28.5558L8.71852 28.3071L8.77558 28.0591L8.83525 27.8117L8.89726 27.565L9.54659 27.3994L9.78188 26.583L9.32016 26.0977L9.39885 25.8559L9.48014 25.6146L9.56378 25.3743L9.64951 25.1345L10.3121 25.0335L10.6264 24.2442L10.2144 23.716L10.3166 23.4827L10.421 23.2508L10.4217 23.2491L10.4226 23.2471L10.4294 23.2328C10.4322 23.2263 10.4362 23.218 10.4406 23.2086L10.5279 23.0196L10.6368 22.7897L11.3059 22.7538L11.6962 21.9991L11.338 21.4332L11.4625 21.2111L11.5894 20.9906L11.7181 20.7709L11.8492 20.5527L12.5188 20.5827L12.9811 19.8696L12.6801 19.2714L12.8258 19.0626L12.9735 18.8554L13.1233 18.6497L13.2752 18.4454L13.9386 18.5406L14.4686 17.8763L14.2279 17.2515L14.3933 17.0581L14.5609 16.8662L14.73 16.6762L14.9012 16.4877L15.552 16.6473L16.1446 16.0384L15.9663 15.393L16.15 15.2165L16.3356 15.0421L16.5226 14.8695L16.7113 14.6987L17.3434 14.9216L17.6681 14.6472L17.993 14.3733L17.8786 13.7134L18.079 13.5559L18.2804 13.4004L18.4836 13.2471L18.6884 13.0953L19.2953 13.3791L19.9957 12.8972L19.9467 12.2292L20.1614 12.0923L20.3774 11.9572L20.5945 11.8244L20.8131 11.6937L21.3894 12.0353L22.1336 11.6242L22.1505 10.9549L22.3775 10.8396L22.6055 10.7263L22.8348 10.6154L23.0651 10.5066L23.6053 10.9031L24.3862 10.567L24.4685 9.9024L24.7056 9.80973L24.9438 9.71965L25.183 9.63166L25.4227 9.54602L25.9214 9.99352L26.7315 9.73527L26.8787 9.08211L27.1236 9.01312L27.3696 8.94648L27.6161 8.88243L27.8631 8.82073L28.3155 9.31484L29.1472 9.13729L29.3577 8.50157L29.6084 8.45706L29.8596 8.41488L30.1113 8.37505L30.3632 8.33782L30.7648 8.87384L31.6098 8.77882L31.8815 8.16679L32.1356 8.14675L32.3896 8.12956L32.6439 8.11472L32.8985 8.10249L33.2456 8.67521L34.0955 8.66297L34.4264 8.08062L34.681 8.08583L34.9356 8.09338L35.1902 8.10353L35.4447 8.11628L35.7337 8.72025L36.5813 8.79157L36.9675 8.24437L37.2202 8.27431L37.4732 8.30685L37.7249 8.34173L37.9771 8.37922L38.2057 9.00869L39.0421 9.16254L39.4801 8.65594L39.7286 8.71062L39.9772 8.76763L40.2245 8.82724L40.4715 8.8892L40.6372 9.53794L41.4546 9.77302L41.9403 9.31146L42.1824 9.39033L42.4236 9.4713L42.6644 9.55486L42.9041 9.64077L43.0055 10.3025L43.7953 10.6165L44.3239 10.2049L44.5574 10.3072L44.7898 10.4113L45.0212 10.5181L45.2508 10.6269L45.2872 11.2957L46.0423 11.6854L46.6088 11.3274L46.8311 11.4519L47.052 11.5787L47.2719 11.7073L47.4903 11.8385L47.4601 12.5073L48.1735 12.9691L48.7723 12.6684L48.9815 12.8139L49.1892 12.9618L49.3947 13.1115L49.5993 13.263L49.5039 13.9261L50.1686 14.4556L50.7942 14.215L50.9878 14.3803L51.1801 14.5475L51.3701 14.7167L51.559 14.8877L51.399 15.538L51.7442 15.8733H58.8917L60.6409 12.7488L60.4841 12.5533L60.3243 12.3589L60.1643 12.1657L60.0025 11.9738L59.8394 11.783L59.6742 11.5935L59.5082 11.4053L59.3407 11.2181L59.1724 11.0322L59.0017 10.8477L58.8303 10.6641L58.6572 10.4822L58.4829 10.3015L58.3076 10.1219L58.1306 9.94353L57.9524 9.76677L57.7729 9.59105L57.5918 9.41689L55.8708 10.1859L55.636 9.97295L55.3989 9.76208L55.1592 9.55382L54.9179 9.34764L54.6751 9.14406L54.4293 8.94283L54.1823 8.74368L53.9335 8.54739L53.6823 8.35318L53.4293 8.16184L53.1747 7.97284L52.9176 7.78619L52.6596 7.60239L52.399 7.42068L52.7662 5.57313L52.5556 5.43594L52.3443 5.30005L52.1317 5.16598L51.9188 5.03347L51.7046 4.90226L51.4892 4.77288L51.2726 4.64506L51.0556 4.51906L50.8375 4.39436L50.6189 4.27122L50.3984 4.14991L50.1783 4.02989L49.9563 3.91197L49.7335 3.79534L49.5104 3.68054L49.2864 3.56729L49.0612 3.45587L48.8353 3.34576L47.4366 4.60861L47.1466 4.47844L46.8563 4.35115L46.5645 4.22697L46.2711 4.10539L45.9764 3.98668L45.6815 3.87109L45.3849 3.75838L45.0866 3.64826L44.788 3.54126L44.4886 3.43739L44.1874 3.33638L43.8859 3.23798L43.5831 3.14296L43.2791 3.0508L43.0563 1.17982L42.8145 1.11421L42.5714 1.05069L42.3275 0.988469L42.0841 0.928342L41.8395 0.870289L41.5945 0.813531L41.3499 0.758603L41.1039 0.705497L40.8579 0.653953L40.612 0.604742L40.3652 0.557627L40.1182 0.511816L39.8704 0.46807L39.6231 0.425384L39.3753 0.38503L39.127 0.346498L38.8782 0.310321L38.6299 0.275174L37.6895 1.90848L37.3739 1.87359L37.0579 1.84287L36.7423 1.81475L36.4257 1.78951L36.1089 1.76738L35.7923 1.74863L35.4757 1.73302L35.1584 1.72052L34.841 1.71115L34.5239 1.70438L34.2065 1.70099H33.8886L33.5713 1.70411L33.2542 1.70985L32.4639 0L32.213 0.0124933L31.9623 0.0268161L31.7114 0.0424347L31.461 0.0606602L31.2106 0.0804483L30.9602 0.102577L30.71 0.126001L30.4602 0.150995L30.2105 0.178589L29.9609 0.207219L29.7116 0.23873L29.4625 0.27153L29.2136 0.305367L28.965 0.342077L28.7167 0.380083L28.4689 0.420696L28.2211 0.462605L27.9736 0.506343L27.5846 2.34921L27.2743 2.41403L26.9639 2.48172L26.6546 2.55253L26.3461 2.62646L26.0381 2.70378L25.7309 2.78345L25.4245 2.86649L25.1191 2.95188L24.8145 3.04091L24.5107 3.1328L24.2079 3.22809L23.906 3.32597L23.605 3.4262L23.3051 3.53059L22.0244 2.14745L21.7897 2.23701L21.5557 2.32787L21.3222 2.42054L21.0895 2.51504L20.8574 2.61163L20.6262 2.70977L20.3956 2.80922L20.1656 2.91022L19.9365 3.01331L19.708 3.11796L19.4806 3.22444L19.2539 3.33248L19.028 3.44233L18.8028 3.55349L18.5785 3.66621L18.3549 3.78128L18.1324 3.89712L17.9107 4.01506L18.111 5.88864L17.8354 6.04614L17.5615 6.20625L17.2892 6.36922L17.0185 6.53452L16.7493 6.70296L16.482 6.87347L16.2165 7.04711L15.9523 7.22309L15.6901 7.40168L15.4298 7.58287L15.1708 7.76666L14.9142 7.95306L14.6591 8.14179L14.4058 8.33288L12.7604 7.41339L12.5647 7.57089L12.3703 7.7297L12.177 7.89006L11.9849 8.05172L11.7939 8.21495L11.6043 8.37948L11.4156 8.54531L11.2285 8.7127L11.0425 8.88139L10.8575 9.05139L10.674 9.22268L10.4916 9.39554L10.3108 9.5697L10.1313 9.74516L9.9528 9.92193L9.77562 10.0997L9.6 10.2794L9.42568 10.46L10.1954 12.1795L9.98199 12.4143L9.77119 12.6512L9.56248 12.8902L9.35612 13.1313L9.15235 13.3744L8.95094 13.6194L8.75187 13.8662L8.55515 14.1153L8.36102 14.366L8.16951 14.6188L7.98034 14.8734L7.79352 15.1298L7.6093 15.3881L7.42795 15.6481L5.57847 15.2816L5.44116 15.4917L5.30514 15.7031L5.17095 15.915L5.03833 16.1282L4.907 16.3424L4.7775 16.5575L4.64962 16.7733L4.52319 16.9904L4.39841 17.2083L4.27527 17.427L4.15374 17.6467L4.03393 17.8672L3.91556 18.0887L3.79901 18.311L3.684 18.5341L3.57073 18.7583L3.45897 18.9832L3.34904 19.2086L4.61298 20.6064L4.48281 20.8956L4.35547 21.1861L4.23097 21.4777L4.10937 21.7708L3.99068 22.0647L3.87476 22.3599L3.76188 22.6562L3.65184 22.9537L3.54478 23.2523L3.44063 23.5517L3.33948 23.8524L3.24114 24.1539L3.14599 24.4564L3.05377 24.7599L1.18147 24.9822L1.11584 25.2243L1.05181 25.4672L0.989828 25.7104L0.929558 25.954L0.871037 26.1982L0.814337 26.4427L0.759384 26.6876L0.706361 26.9329L0.655056 27.1786L0.605809 27.4246L0.558075 27.6712L0.512268 27.918L0.46818 28.1653L0.426047 28.4126L0.385738 28.6604L0.347383 28.9085L0.31054 29.1566L0.275832 29.4052L1.91024 30.3445L1.87585 30.6597L1.8446 30.9753L1.81641 31.291L1.79127 31.6071L1.76938 31.9236L1.75054 32.2399L1.73478 32.5568L1.72214 32.8736L1.71258 33.1904L1.70627 33.5075L1.70301 33.8246L1.70281 34.1416L1.70575 34.4587L1.71187 34.7758L0 35.5654L0.0125065 35.8161L0.0268642 36.0668L0.043046 36.3172L0.0610504 36.5674L0.0809043 36.8178L0.102689 37.0677L0.126191 37.3177L0.151648 37.5673L0.178929 37.817L0.207929 38.0664L0.238885 38.3152L0.271637 38.5641L0.306239 38.8127L0.342797 39.0613L0.381073 39.3092L0.421071 39.557L0.462994 39.8046L0.50677 40.0516L2.35158 40.4401L2.41651 40.7506L2.48429 41.0604L2.55524 41.3694L2.62924 41.6779L2.70618 41.9854L2.78607 42.2923L2.86903 42.5984L2.95505 42.9035L3.044 43.2079L3.1359 43.5114L3.23098 43.8142L3.32877 44.1156L3.42984 44.4163L3.53357 44.716L2.14972 45.9955L2.2391 46.23L2.33029 46.4638L2.42324 46.6971L2.51777 46.9295L2.61407 47.1615L2.7121 47.3927L2.81174 47.6231L2.91309 47.8527L3.0163 48.0815L3.12105 48.3095L3.22752 48.5371L3.3357 48.7636L3.44553 48.9893L3.55687 49.2144L3.67006 49.4383L3.78476 49.6617L3.9012 49.884L4.01926 50.1055L5.89402 49.9056L6.05165 50.1808L6.21216 50.4544L6.37501 50.7267L6.54073 50.9969L6.70905 51.2658L6.87999 51.5329L7.05378 51.7985L7.22966 52.0622L7.40867 52.3241L7.59002 52.5844L7.77398 52.8429L7.96028 53.0993L8.14919 53.3542L8.3407 53.6072L7.42013 55.2512L7.57777 55.4467L7.73698 55.6412L7.89722 55.8341L8.05903 56.0262L8.22241 56.2168L8.38708 56.4065L8.55306 56.5947L8.72086 56.7819L8.88945 56.9678L9.05986 57.1524L9.23131 57.3356L9.40432 57.5179L9.57837 57.6986L9.75399 57.8782L9.93118 58.0562L10.1091 58.2333L10.2889 58.4087L10.4695 58.5832L12.1905 57.8141L12.4258 58.0271L12.6629 58.238L12.9021 58.4462L13.1434 58.6524L13.3865 58.8559L13.6317 59.0572L13.879 59.2561L14.1281 59.4527L14.3792 59.6466L14.6323 59.8382L14.8871 60.0272L15.1435 60.2138L15.4022 60.3977L15.6625 60.5791L15.2954 62.4266L15.5059 62.5641L15.7172 62.6998L15.9296 62.8338L16.143 62.9666L16.3572 63.0976L16.5724 63.2269L16.7887 63.3547L17.0057 63.4811L17.2238 63.6057L17.4429 63.7286L17.6626 63.8502L17.8836 63.9699L18.1053 64.088L18.3278 64.2047L18.5511 64.3195L18.7752 64.4328L19.0003 64.5442L19.2262 64.6543L20.6252 63.3914L20.9147 63.5213L21.2055 63.6486L21.4973 63.7731L21.7904 63.8946L22.0849 64.0131L22.3804 64.1289L22.6769 64.2417L22.9747 64.3518L23.2733 64.4585L23.5732 64.5626L23.8739 64.6637L24.1756 64.7618L24.4787 64.8571L24.7822 64.9493L25.0047 66.8197L25.2473 66.8856L25.4902 66.9493L25.7338 67.0113L25.9777 67.0715L26.2218 67.1297L26.4668 67.1865L26.7117 67.2415L26.9574 67.2943L27.2034 67.3458L27.4496 67.395L27.6964 67.4427L27.9434 67.4883L28.1907 67.5322L28.4385 67.5744L28.6865 67.6148L28.9346 67.6533L29.1831 67.6901L29.432 67.7249L30.3718 66.0916L30.6874 66.1259L31.0032 66.1572L31.3192 66.1853L31.6358 66.2105L31.9524 66.2324L32.2692 66.2511L32.5861 66.2671L32.9035 66.2796L33.2206 66.2891L33.5379 66.2954L33.855 66.2988L34.1727 66.299L34.49 66.296L34.8074 66.29L35.5977 68L35.8486 67.9876L36.0993 67.9734L36.3499 67.9571L36.6006 67.9394L36.851 67.9194L37.1014 67.8977L37.3515 67.8741L37.6014 67.8488L37.851 67.8214L38.1006 67.7923L38.35 67.7616L38.5991 67.7288L38.8479 67.6942L39.0965 67.658L39.3448 67.6195L39.5926 67.5796L39.8404 67.5377L40.088 67.494L40.4767 65.6506L40.7871 65.586L41.0971 65.518L41.4069 65.4472L41.7157 65.3733L42.0234 65.2965L42.3306 65.2166L42.637 65.1335L42.9424 65.0477L43.2468 64.9589L43.5508 64.867L43.8539 64.7722L44.1554 64.6744L44.4563 64.5736L44.7562 64.4697L46.0371 65.8523L46.2716 65.763L46.5059 65.6719L46.7394 65.5793L46.972 65.4848L47.2037 65.3885L47.4353 65.2905L47.6659 65.1911L47.896 65.0896L48.1248 64.9865L48.353 64.882L48.581 64.7756L48.8074 64.6676L49.0336 64.558L49.259 64.4466L49.4828 64.3335L49.7064 64.2188L49.9294 64.1024L50.1506 63.9845L49.9503 62.1114L50.2262 61.954L50.5001 61.7938L50.7721 61.6309L51.0433 61.4652L51.312 61.2971L51.5793 61.1263L51.8453 60.9527L52.1096 60.777L52.3712 60.5984L52.6317 60.4172L52.891 60.2333L53.1476 60.047L53.4022 59.8583L53.6557 59.6669L55.3012 60.5866L55.4966 60.4292L55.6915 60.2704L55.8846 60.11L56.0764 59.9483L56.2674 59.7851L56.4576 59.6206L56.6454 59.4548L56.8333 59.2873L57.0191 59.1187L57.2038 58.9487L57.3873 58.7771L57.5699 58.6043L57.7508 58.4304L57.9305 58.2548L58.1085 58.0781L58.2859 57.9L58.4616 57.7206L58.6359 57.5401L57.4227 54.8394H48.4486Z" fill="white"/>
<path d="M23.8932 57.3683C23.8932 57.3683 23.8968 57.3693 23.9023 57.3713L23.8932 57.3683Z" fill="white"/>
<path d="M45.1679 17.2635H20.2883L17.6681 24.0245H24.9615L16.0356 47.0012H26.2818L35.2509 24.0451H42.5422L45.1679 17.2635Z" fill="white"/>
<path d="M109.232 31.1484L96.5788 31.1461L94.5977 36.1832H97.5416L96.646 38.5043C95.8599 40.6616 94.8205 42.1635 92.3441 42.1635C89.8623 42.1635 90.3248 40.0509 91.0069 38.2603L95.6314 26.2092C96.3104 24.4645 97.3662 22.6325 99.845 22.6325C101.859 22.6325 102.056 23.7696 101.17 25.9267L100.567 27.6623H110.275C112.71 21.2916 112.058 17.2664 101.835 17.2664C89.2356 17.2664 87.9164 19.2748 82.7875 32.4834C79.5421 40.7785 77.2898 47.527 87.7676 47.5281C92.4666 47.5281 93.7606 47.1644 96.4592 44.6014L95.5365 47.0001H103.098L109.232 31.1484Z" fill="white"/>
<path fill-rule="evenodd" clip-rule="evenodd" d="M151.517 47.0017C151.273 46.0598 151.42 45.0424 151.813 43.9899L156.516 31.9789C157.743 28.8122 157.104 26.1014 148.432 26.1014C140.59 26.1014 137.552 26.4023 135.053 32.9541H143.384C143.825 31.7867 144.559 30.6186 146.568 30.6186C147.599 30.6186 148.184 31.1862 147.797 32.1996C147.255 33.5195 146.421 33.9719 144.316 34.3083L139.611 35.1038C135.787 35.7396 132.552 36.9832 130.788 41.5048C129.271 45.3809 131.183 47.5307 135.642 47.5307C140.336 47.5307 140.917 46.9135 142.512 45.2202C142.633 45.0924 142.759 44.9585 142.893 44.8183L142.859 44.8894C142.563 45.5673 142.433 46.2852 142.481 47.0017H151.517ZM143.452 37.8636C144.473 37.6014 145.199 37.4148 145.885 37.1352L144.656 40.1948C144.202 41.4069 143.231 42.7815 141.291 42.7815C140.903 42.7815 140.456 42.7185 140.176 42.4225C139.899 42.1296 139.886 41.691 139.969 41.3182C140.108 40.6866 140.357 40.0738 140.713 39.5328C141.261 38.6987 142.125 38.2059 143.078 37.9599L143.452 37.8636Z" fill="white"/>
<path d="M169.455 26.6283H160.56L152.62 47.0012H161.814C161.814 47.0012 165.049 38.5313 165.298 37.8855C165.533 37.2729 165.774 36.6624 166.112 36.0975C166.702 35.1127 167.593 34.3648 168.704 34.0386C169.255 33.8769 169.825 33.8004 170.397 33.7645C170.998 33.7272 171.602 33.7363 172.204 33.7556C172.808 33.7751 173.409 33.8389 174.009 33.9084L177 26.2199C176.182 26.0892 175.218 26.0626 174.396 26.1727C173.126 26.3427 171.916 26.8686 170.838 27.5475C169.819 28.1887 168.889 28.9898 168.127 29.923L169.455 26.6283Z" fill="white"/>
<path fill-rule="evenodd" clip-rule="evenodd" d="M54.5944 36.8336C56.557 31.8626 58.6615 26.0995 47.8325 26.0995C37.3467 26.0995 35.5324 27.984 32.0533 36.7964C29.8969 42.2951 28.9654 47.5303 39.4518 47.5303C49.9397 47.5303 51.4111 44.8939 54.5944 36.8336ZM45.7743 36.7964C43.9118 41.5404 43.1773 42.7832 41.2653 42.7832C39.5015 42.7832 39.6964 41.5404 41.5589 36.7964C43.3735 32.0506 44.1065 30.8072 46.0683 30.8072C47.7838 30.8072 47.5871 32.0506 45.7743 36.7964Z" fill="white"/>
<path fill-rule="evenodd" clip-rule="evenodd" d="M117.827 43.2341C115.863 43.2341 116.356 41.7679 116.796 40.6753L117.827 38.0017H130.858L131.008 37.6641L131.064 37.5218C132.308 34.3286 133.466 31.3579 132.601 29.2187C131.839 27.3332 129.622 26.1005 124.587 26.1005C119.345 26.1005 116.598 26.5639 114.456 27.8606C112.277 29.1799 110.801 31.5997 108.807 36.7956C106.402 43.0635 106.16 47.53 116.206 47.53C121.208 47.53 122.775 47.1502 125.079 46.1365C127.528 45.0418 128.75 42.6343 129.831 39.8467H121.208C120.422 41.916 119.687 43.2341 117.827 43.2341ZM122.823 30.391C124.342 30.391 124.686 30.9577 123.902 32.9534L123.411 34.1598H119.296L119.785 32.9534C120.569 30.9577 121.45 30.391 122.823 30.391Z" fill="white"/>
<path fill-rule="evenodd" clip-rule="evenodd" d="M62.7276 44.6268L59.321 53.4413H49.812L60.2272 26.6274H69.5874L68.7041 28.962C69.3923 27.984 71.3963 26.4025 75.3701 26.4025C83.0633 26.4025 81.7901 30.9187 79.3377 37.1351C76.0562 45.5325 74.1942 47.5308 67.5782 47.5308C65.0297 47.5308 63.0762 46.4658 62.7276 44.6268ZM69.8342 31.5213C67.9712 31.5213 67.1379 32.9909 65.6206 36.8336C64.1477 40.6373 63.8183 42.155 65.6798 42.155C67.5436 42.155 68.46 40.6373 69.9304 36.8336C71.4526 32.9909 71.6954 31.5213 69.8342 31.5213Z" fill="white"/>
<path d="M49.0169 20.9087H49.7014C50.1748 20.9087 50.4117 21.0829 50.4117 21.4309C50.4117 21.5944 50.3494 21.7197 50.2251 21.8066C50.1006 21.8936 49.9226 21.937 49.691 21.937H49.0169V20.9087Z" fill="white"/>
<path d="M50.2199 19.8166C50.2199 19.9728 50.167 20.0947 50.0618 20.1816C49.9562 20.2686 49.8033 20.3121 49.6029 20.3121H49.0169V19.3637H49.6029C50.0141 19.3637 50.2199 19.5149 50.2199 19.8166Z" fill="white"/>
<path fill-rule="evenodd" clip-rule="evenodd" d="M46.3042 24.0366V17.2644H53.0825V24.0366H46.3042ZM50.5362 22.422C50.7504 22.3333 50.9154 22.207 51.0311 22.0435C51.147 21.8803 51.2049 21.685 51.2049 21.4575C51.2049 21.2269 51.1452 21.0306 51.0261 20.8689C50.9068 20.7072 50.7348 20.5893 50.5102 20.5146C50.6725 20.4365 50.7952 20.3308 50.8781 20.1975C50.9612 20.0642 51.0027 19.9072 51.0027 19.7261C51.0027 19.41 50.887 19.1676 50.6553 18.9987C50.4237 18.8303 50.0972 18.7457 49.6753 18.7457H48.2446V22.5551H49.7637C50.0644 22.5551 50.3218 22.5108 50.5362 22.422Z" fill="white"/>
<path d="M57.4899 20.9087H58.1741C58.6478 20.9087 58.8847 21.0829 58.8847 21.4309C58.8847 21.5944 58.8224 21.7197 58.6979 21.8066C58.5736 21.8936 58.3956 21.937 58.164 21.937H57.4899V20.9087Z" fill="white"/>
<path d="M58.6926 19.8166C58.6926 19.9728 58.64 20.0947 58.5345 20.1816C58.4292 20.2686 58.2763 20.3121 58.0759 20.3121H57.4899V19.3637H58.0759C58.4871 19.3637 58.6926 19.5149 58.6926 19.8166Z" fill="white"/>
<path fill-rule="evenodd" clip-rule="evenodd" d="M54.7772 24.0366V17.2644H61.5555V24.0366H54.7772ZM59.009 22.422C59.2232 22.3333 59.3883 22.207 59.504 22.0435C59.6197 21.8803 59.6778 21.685 59.6778 21.4575C59.6778 21.2269 59.6182 21.0306 59.4988 20.8689C59.3798 20.7072 59.2078 20.5893 58.9829 20.5146C59.1455 20.4365 59.2682 20.3308 59.3511 20.1975C59.4342 20.0642 59.4756 19.9072 59.4756 19.7261C59.4756 19.41 59.3597 19.1676 59.1283 18.9987C58.8967 18.8303 58.5702 18.7457 58.1483 18.7457H56.7176V22.5551H58.2364C58.5374 22.5551 58.7945 22.5108 59.009 22.422Z" fill="white"/>
<path fill-rule="evenodd" clip-rule="evenodd" d="M70.0284 24.0366H63.2499V17.2644H70.0284V24.0366ZM67.5695 22.5199C67.7774 22.4697 67.9604 22.4007 68.1183 22.3137V21.5877C67.7845 21.7933 67.4205 21.8959 67.0257 21.8959C66.7675 21.8959 66.5476 21.8472 66.3665 21.7499C66.1854 21.6522 66.047 21.5104 65.9522 21.324C65.8571 21.1378 65.8097 20.9124 65.8097 20.6479C65.8097 20.3834 65.8589 20.1587 65.9577 19.9741C66.0562 19.7896 66.1979 19.6487 66.3826 19.5511C66.5674 19.4538 66.7907 19.4048 67.0528 19.4048C67.2428 19.4048 67.4241 19.4301 67.5963 19.4806C67.7663 19.5301 67.9277 19.605 68.0753 19.7026V18.9609C67.9137 18.8774 67.7389 18.8141 67.5505 18.7704C67.3621 18.7269 67.1622 18.705 66.9504 18.705C66.6455 18.705 66.3701 18.7506 66.1244 18.8409C65.8785 18.9315 65.6677 19.062 65.492 19.2327C65.3162 19.4032 65.1817 19.6079 65.0884 19.8463C64.9951 20.0848 64.9485 20.3519 64.9485 20.6479C64.9485 20.9506 64.9933 21.2232 65.083 21.4651C65.1726 21.7069 65.3018 21.9115 65.4704 22.0787C65.639 22.2458 65.8454 22.3739 66.0893 22.4624C66.3334 22.5514 66.6078 22.5957 66.9129 22.5957C67.1422 22.5957 67.3613 22.5704 67.5695 22.5199Z" fill="white"/>
</svg>
