<svg width="296" height="82" viewBox="0 0 296 82" fill="none" xmlns="http://www.w3.org/2000/svg">
<path opacity="0.05" d="M0.932001 82H16.708V28.292L35.268 71.328H46.752L65.312 28.292V82H81.552V0.799994H62.876L41.3 49.288L19.724 0.799994H0.932001V82ZM110.277 82H140.205C151.109 82 156.213 76.78 156.213 65.876V16.924C156.213 6.02 151.109 0.799994 140.205 0.799994H110.277C99.3734 0.799994 94.1534 6.02 94.1534 16.924V65.876C94.1534 76.78 99.3734 82 110.277 82ZM114.453 67.384C111.785 67.384 110.857 66.456 110.857 63.788V19.012C110.857 16.344 111.785 15.416 114.453 15.416H136.029C138.581 15.416 139.509 16.344 139.509 19.012V63.788C139.509 66.456 138.581 67.384 136.029 67.384H114.453ZM216.784 51.84C224.788 50.564 228.732 45.46 228.732 36.064V16.924C228.732 6.02 223.512 0.799994 212.724 0.799994H168.992V82H185.696V52.884H199.5L214 82H228.964V75.968L216.784 51.84ZM185.696 38.732V15.184H208.548C211.1 15.184 212.028 16.112 212.028 18.664V35.136C212.028 37.804 211.1 38.732 208.548 38.732H185.696ZM241.297 82H295.933V67.384H258.001V47.664H288.857V33.28H258.001V15.416H295.933V0.799994H241.297V82Z" fill="#0F4156"/>
</svg>
