<svg xmlns="http://www.w3.org/2000/svg" viewBox="0 0 26 26" stroke="currentColor" fill="currentColor" stroke-width="0" width="100%" height="100%" data-testid="SvgInstagram"><path d="M12.996 2.344c3.471 0 3.879.014 5.25.077 1.27.057 1.956.268 2.414.448.61.238 1.042.517 1.496.971.454.454.739.887.971 1.496.174.459.391 1.145.448 2.414.063 1.373.077 1.78.077 5.253 0 3.472-.014 3.88-.077 5.253-.057 1.269-.268 1.955-.448 2.415a4.046 4.046 0 01-.97 1.496 3.97 3.971 0 01-1.497.97c-.458.175-1.146.391-2.414.45-1.371.06-1.779.077-5.25.077-3.473 0-3.88-.015-5.252-.078-1.27-.058-1.955-.268-2.415-.45a4.034 4.035 0 01-1.496-.969 3.97 3.971 0 01-.969-1.496c-.176-.46-.393-1.146-.45-2.415-.06-1.373-.077-1.78-.077-5.253 0-3.472.015-3.88.078-5.253.056-1.269.267-1.955.45-2.414a4.03 4.03 0 01.968-1.496 3.97 3.971 0 011.496-.97c.46-.176 1.146-.392 2.415-.449 1.372-.067 1.779-.077 5.252-.077zm0-2.344c-3.528 0-3.974.015-5.36.077C6.253.14 5.309.362 4.485.682a6.334 6.335 0 00-2.302 1.5 6.446 6.447 0 00-1.5 2.303C.362 5.31.14 6.254.077 7.64.017 9.026 0 9.468 0 13c0 3.528.015 3.972.077 5.36.063 1.383.285 2.327.605 3.158.33.856.778 1.578 1.5 2.302a6.446 6.447 0 002.302 1.5c.824.32 1.768.543 3.156.604C9.028 25.985 9.466 26 13 26c3.534 0 3.972-.015 5.359-.077 1.384-.061 2.328-.283 3.157-.603a6.334 6.335 0 002.302-1.501 6.446 6.447 0 001.5-2.302c.32-.825.542-1.77.605-3.157.06-1.389.077-1.828.077-5.361 0-3.535-.015-3.974-.077-5.36-.063-1.385-.283-2.33-.605-3.16a6.334 6.335 0 00-1.5-2.3A6.446 6.447 0 0021.516.675c-.824-.319-1.768-.54-3.156-.603C16.966.016 16.524 0 12.996 0zm0 6.322a6.676 6.678 0 000 13.353 6.68 6.68 0 006.674-6.676 6.68 6.68 0 00-6.674-6.677zm0 11.01a4.333 4.334 0 11-.002-8.668 4.333 4.334 0 010 8.669zm5.38-11.273a1.559 1.559 0 103.116 0 1.559 1.559 0 10-3.117 0z" stroke="none"/></svg>