<svg xmlns="http://www.w3.org/2000/svg" viewBox="0 0 31 22" stroke="currentColor" fill="currentColor" stroke-width="0" width="100%" height="100%" data-testid="SvgYoutube"><path d="M30.67 4.814s-.293-2.175-1.229-3.15C28.264.407 26.948.39 26.341.32 21.996 0 15.502 0 15.502 0h-.018S8.972 0 4.643.319c-.607.072-1.923.088-3.1 1.345-.935.956-1.23 3.15-1.23 3.15S0 7.38 0 9.946v2.407c0 2.566.313 5.131.313 5.131s.295 2.176 1.23 3.15c1.177 1.256 2.736 1.22 3.411 1.362 2.477.248 10.547.32 10.547.32s6.51-.018 10.858-.337c.606-.071 1.922-.089 3.1-1.346.935-.955 1.23-3.149 1.23-3.149S31 14.918 31 12.352V9.945c-.017-2.565-.33-5.131-.33-5.131zm-18.39 10.46V6.37l8.38 4.46-8.38 4.44z" stroke="none"/></svg>