<svg xmlns="http://www.w3.org/2000/svg" viewBox="0 0 26 26" stroke="currentColor" fill="currentColor" stroke-width="0" width="100%" height="100%" data-testid="SvgFacebook"><path d="M24.565 0H1.435C.643 0 0 .642 0 1.435v23.13C0 25.357.643 26 1.436 26h12.452V15.932H10.5v-3.924h3.388V9.114c0-3.358 2.052-5.187 5.047-5.187 1.435 0 2.668.107 3.027.155v3.509l-2.078.001c-1.629 0-1.943.774-1.943 1.91v2.505h3.885l-.506 3.924h-3.38V26h6.625c.793 0 1.435-.643 1.435-1.435V1.435A1.433 1.433 0 0024.567 0h-.002z" stroke="none"/></svg>